<svg width="51" height="41" viewBox="0 0 51 41" fill="none" xmlns="http://www.w3.org/2000/svg">
<path d="M33.4091 1C30.3748 1 27.4626 2.41253 25.5617 4.64469C23.6609 2.41253 20.7487 1 17.7143 1C12.3432 1 8.12305 5.22016 8.12305 10.5913C8.12305 17.1831 14.0522 22.5542 23.0331 30.7155L25.5617 33L28.0903 30.6981C37.0713 22.5542 43.0004 17.1831 43.0004 10.5913C43.0004 5.22016 38.7803 1 33.4091 1ZM25.7361 28.1172L25.5617 28.2916L25.3874 28.1172C17.0865 20.6011 11.6108 15.6311 11.6108 10.5913C11.6108 7.10354 14.2266 4.48774 17.7143 4.48774C20.3999 4.48774 23.0157 6.21417 23.9399 8.60327H27.201C28.1078 6.21417 30.7236 4.48774 33.4091 4.48774C36.8969 4.48774 39.5127 7.10354 39.5127 10.5913C39.5127 15.6311 34.0369 20.6011 25.7361 28.1172Z" fill="url(#paint0_linear_127501_527)"/>
<defs>
<linearGradient id="paint0_linear_127501_527" x1="22.6957" y1="-2.84001" x2="72.9453" y2="4.41189" gradientUnits="userSpaceOnUse">
<stop stop-color="#002F52"/>
<stop offset="1" stop-color="#326589"/>
</linearGradient>
</defs>
</svg>
